<svg id="Warstwa_1" data-name="Warstwa 1" xmlns="http://www.w3.org/2000/svg" xmlns:xlink="http://www.w3.org/1999/xlink" viewBox="0 0 63.43 51.7"><defs><style>.cls-1,.cls-4{fill:none;}.cls-2{clip-path:url(#clip-path);}.cls-3{fill:#fff;}.cls-4{stroke:#fff;stroke-miterlimit:10;stroke-width:0.6px;}</style><clipPath id="clip-path"><rect class="cls-1" width="63.43" height="51.7"/></clipPath></defs><title>icon__chat</title><g class="cls-2"><path class="cls-3" d="M20.17,19a3.66,3.66,0,0,1-.86-2.35,3.88,3.88,0,0,1,4-3.78,4,4,0,0,1,3,1.33l-1.1.89a2.59,2.59,0,0,0-1.93-.85,2.47,2.47,0,0,0-2.53,2.41,2.29,2.29,0,0,0,.55,1.49Zm-6.65-4.76a2.41,2.41,0,1,0,2.53,2.41,2.48,2.48,0,0,0-2.53-2.41m0,6.19a3.89,3.89,0,0,1-4-3.78,3.88,3.88,0,0,1,4-3.78,3.88,3.88,0,0,1,4,3.78,3.89,3.89,0,0,1-4,3.78M5.72,39.81l.35-1.11A26.93,26.93,0,0,0,7.66,29,13.76,13.76,0,0,1,.3,16.54C.3,7.28,10.05.3,23,.3c10,0,18.47,4.3,21.5,11l-1.32.55C40.34,5.65,32.42,1.67,23,1.67c-12.1,0-21.23,6.39-21.23,14.87,0,5.07,2.35,8.92,7,11.46l.34.19,0,.37A25.94,25.94,0,0,1,7.81,37.9a31.41,31.41,0,0,0,10.34-5.41l.92,1a31.62,31.62,0,0,1-12.16,6Z"/><path class="cls-4" d="M20.17,19a3.66,3.66,0,0,1-.86-2.35,3.88,3.88,0,0,1,4-3.78,4,4,0,0,1,3,1.33l-1.1.89a2.59,2.59,0,0,0-1.93-.85,2.47,2.47,0,0,0-2.53,2.41,2.29,2.29,0,0,0,.55,1.49Zm-6.65-4.76a2.41,2.41,0,1,0,2.53,2.41A2.48,2.48,0,0,0,13.52,14.21Zm0,6.19a3.89,3.89,0,0,1-4-3.78,3.88,3.88,0,0,1,4-3.78,3.88,3.88,0,0,1,4,3.78A3.89,3.89,0,0,1,13.52,20.4ZM5.72,39.81l.35-1.11A26.93,26.93,0,0,0,7.66,29,13.76,13.76,0,0,1,.3,16.54C.3,7.28,10.05.3,23,.3c10,0,18.47,4.3,21.5,11l-1.32.55C40.34,5.65,32.42,1.67,23,1.67c-12.1,0-21.23,6.39-21.23,14.87,0,5.07,2.35,8.92,7,11.46l.34.19,0,.37A25.94,25.94,0,0,1,7.81,37.9a31.41,31.41,0,0,0,10.34-5.41l.92,1a31.62,31.62,0,0,1-12.16,6Z"/><path class="cls-3" d="M30.38,25.66a2.41,2.41,0,1,0,2.54,2.41,2.48,2.48,0,0,0-2.54-2.41m0,6.18a3.78,3.78,0,1,1,4-3.77,3.88,3.88,0,0,1-4,3.77m9.77-6.18a2.41,2.41,0,1,0,2.53,2.41,2.47,2.47,0,0,0-2.53-2.41m0,6.18a3.78,3.78,0,1,1,4-3.77,3.89,3.89,0,0,1-4,3.77m9.76-6.18a2.41,2.41,0,1,0,2.54,2.41,2.48,2.48,0,0,0-2.54-2.41m0,6.18a3.78,3.78,0,1,1,4-3.77,3.88,3.88,0,0,1-4,3.77m-6.1,10.85.24.21a31.77,31.77,0,0,0,11.71,6.49A29.69,29.69,0,0,1,54.35,40l0-.37.34-.19c4.63-2.54,7-6.4,7-11.46,0-8.48-9.13-14.87-21.23-14.87S19.24,19.51,19.24,28s9.12,14.87,21.22,14.87c1,0,2,0,3-.14Zm14,8.61-1.19-.25A32.16,32.16,0,0,1,43.3,44.11c-1,.08-1.91.12-2.84.12-12.92,0-22.66-7-22.66-16.24s9.74-16.24,22.66-16.24,22.67,7,22.67,16.24a13.76,13.76,0,0,1-7.35,12.45,31.27,31.27,0,0,0,1.72,9.75Z"/><path class="cls-4" d="M30.38,25.66a2.41,2.41,0,1,0,2.54,2.41A2.48,2.48,0,0,0,30.38,25.66Zm0,6.18a3.78,3.78,0,1,1,4-3.77A3.88,3.88,0,0,1,30.38,31.84Zm9.77-6.18a2.41,2.41,0,1,0,2.53,2.41A2.47,2.47,0,0,0,40.15,25.66Zm0,6.18a3.78,3.78,0,1,1,4-3.77A3.89,3.89,0,0,1,40.15,31.84Zm9.76-6.18a2.41,2.41,0,1,0,2.54,2.41A2.48,2.48,0,0,0,49.91,25.66Zm0,6.18a3.78,3.78,0,1,1,4-3.77A3.88,3.88,0,0,1,49.91,31.84Zm-6.1,10.85.24.21a31.77,31.77,0,0,0,11.71,6.49A29.69,29.69,0,0,1,54.35,40l0-.37.34-.19c4.63-2.54,7-6.4,7-11.46,0-8.48-9.13-14.87-21.23-14.87S19.24,19.51,19.24,28s9.12,14.87,21.22,14.87c1,0,2,0,3-.14Zm14,8.61-1.19-.25A32.16,32.16,0,0,1,43.3,44.11c-1,.08-1.91.12-2.84.12-12.92,0-22.66-7-22.66-16.24s9.74-16.24,22.66-16.24,22.67,7,22.67,16.24a13.76,13.76,0,0,1-7.35,12.45,31.27,31.27,0,0,0,1.72,9.75Z"/></g></svg>