<svg id="Warstwa_1" data-name="Warstwa 1" xmlns="http://www.w3.org/2000/svg" xmlns:xlink="http://www.w3.org/1999/xlink" viewBox="0 0 90 66"><defs><style>.cls-1,.cls-3{fill:none;}.cls-2{clip-path:url(#clip-path);}.cls-3{stroke:#455963;stroke-linecap:round;stroke-linejoin:round;stroke-width:3px;}</style><clipPath id="clip-path"><rect class="cls-1" width="90" height="66"/></clipPath></defs><title>icon__customers</title><g class="cls-2"><path class="cls-3" d="M82.5,21A1.5,1.5,0,1,1,81,19.5,1.5,1.5,0,0,1,82.5,21Zm-72,0A1.5,1.5,0,1,1,9,19.5,1.5,1.5,0,0,1,10.5,21ZM63,13.5H42L30.75,24.75a5.3,5.3,0,0,0,7.5,7.5l5-5a12,12,0,0,1,17,0L73.76,40.76a4.24,4.24,0,0,1-6,6L61.5,40.5M27,13.5H42m-30,15,8.3,8.3M18,1.5,28.5,12,9,31.5,1.5,24M72,1.5,61.5,12,81,31.5,88.5,24M44.72,59.72l3.54,3.54a4.24,4.24,0,0,0,6-6M69.75,36.75,78,28.5m-22.5,18,7.76,7.76a4.24,4.24,0,1,0,6-6l-1.5-1.5M49.5,52.5l7.76,7.76a4.24,4.24,0,0,0,6-6m-41-7.5a4.24,4.24,0,0,1-6-6l3.52-3.52a4.24,4.24,0,0,1,6,6Zm4.5,7.5a4.24,4.24,0,0,1-6-6l5-5a4.24,4.24,0,0,1,6,6Zm6,6a4.24,4.24,0,0,1-6-6l5-5a4.24,4.24,0,0,1,6,6Zm9,3a4.24,4.24,0,0,1-6-6l2-2a4.24,4.24,0,0,1,6,6Z"/></g></svg>