<svg id="Warstwa_1" data-name="Warstwa 1" xmlns="http://www.w3.org/2000/svg" xmlns:xlink="http://www.w3.org/1999/xlink" viewBox="0 0 49.68 51"><defs><style>.cls-1,.cls-4{fill:none;}.cls-2{clip-path:url(#clip-path);}.cls-3{fill:#fff;}.cls-4{stroke:#fff;stroke-miterlimit:10;}</style><clipPath id="clip-path"><rect class="cls-1" width="49.68" height="51"/></clipPath></defs><title>icon__credit</title><g class="cls-2"><path class="cls-3" d="M2.3,13.53A39.13,39.13,0,0,0,24.84,2.3,39.13,39.13,0,0,0,47.38,13.53a32.57,32.57,0,0,1,.25,3.81c0,14-8.94,26.35-22.79,31.65C11,43.69,2.05,31.3,2.05,17.34a32.57,32.57,0,0,1,.25-3.81M24.55,50.45a.87.87,0,0,0,.58,0C39.74,45,49.18,32,49.18,17.34a33.93,33.93,0,0,0-.33-4.54.75.75,0,0,0-.67-.63A37.46,37.46,0,0,1,25.43.74a.85.85,0,0,0-1.18,0A37.46,37.46,0,0,1,1.5,12.17a.75.75,0,0,0-.67.63A33.93,33.93,0,0,0,.5,17.34C.5,32,9.94,45,24.55,50.45"/><path class="cls-4" d="M2.3,13.53A39.13,39.13,0,0,0,24.84,2.3,39.13,39.13,0,0,0,47.38,13.53a32.57,32.57,0,0,1,.25,3.81c0,14-8.94,26.35-22.79,31.65C11,43.69,2.05,31.3,2.05,17.34A32.57,32.57,0,0,1,2.3,13.53ZM24.55,50.45a.87.87,0,0,0,.58,0C39.74,45,49.18,32,49.18,17.34a33.93,33.93,0,0,0-.33-4.54.75.75,0,0,0-.67-.63A37.46,37.46,0,0,1,25.43.74a.85.85,0,0,0-1.18,0A37.46,37.46,0,0,1,1.5,12.17a.75.75,0,0,0-.67.63A33.93,33.93,0,0,0,.5,17.34C.5,32,9.94,45,24.55,50.45Z"/><path class="cls-3" d="M24.84,35.53c5.93,0,10.76-4.5,10.76-10a9.75,9.75,0,0,0-.2-1.94.77.77,0,0,0-.91-.57.71.71,0,0,0-.61.85,8.35,8.35,0,0,1,.17,1.66c0,4.74-4.13,8.59-9.21,8.59s-9.21-3.85-9.21-8.59,4.13-8.58,9.21-8.58a9.65,9.65,0,0,1,5.05,1.4A.8.8,0,0,0,31,18.1a.69.69,0,0,0-.22-1,11.26,11.26,0,0,0-5.9-1.64c-5.94,0-10.76,4.5-10.76,10s4.82,10,10.76,10"/><path class="cls-4" d="M24.84,35.53c5.93,0,10.76-4.5,10.76-10a9.75,9.75,0,0,0-.2-1.94.77.77,0,0,0-.91-.57.71.71,0,0,0-.61.85,8.35,8.35,0,0,1,.17,1.66c0,4.74-4.13,8.59-9.21,8.59s-9.21-3.85-9.21-8.59,4.13-8.58,9.21-8.58a9.65,9.65,0,0,1,5.05,1.4A.8.8,0,0,0,31,18.1a.69.69,0,0,0-.22-1,11.26,11.26,0,0,0-5.9-1.64c-5.94,0-10.76,4.5-10.76,10S18.9,35.53,24.84,35.53Z"/><path class="cls-3" d="M21,23.09a.83.83,0,0,0-1.09-.16.7.7,0,0,0-.17,1l4.48,5.78a.8.8,0,0,0,.6.3h0a.81.81,0,0,0,.59-.26L35.92,18.31a.69.69,0,0,0-.09-1,.81.81,0,0,0-1.09.08L24.89,28.12Z"/><path class="cls-4" d="M21,23.09a.83.83,0,0,0-1.09-.16.7.7,0,0,0-.17,1l4.48,5.78a.8.8,0,0,0,.6.3h0a.81.81,0,0,0,.59-.26L35.92,18.31a.69.69,0,0,0-.09-1,.81.81,0,0,0-1.09.08L24.89,28.12Z"/></g></svg>