<svg id="Warstwa_1" data-name="Warstwa 1" xmlns="http://www.w3.org/2000/svg" xmlns:xlink="http://www.w3.org/1999/xlink" viewBox="0 0 62.68 68.58"><defs><style>.cls-1{fill:none;}.cls-2{clip-path:url(#clip-path);}.cls-3{fill:#ed5276;}</style><clipPath id="clip-path"><rect class="cls-1" width="62.68" height="68.58"/></clipPath></defs><title>icon__key</title><g class="cls-2"><path class="cls-3" d="M55,29a12.6,12.6,0,0,0-11.36-8.31C44.86,15.22,42,9.12,36.6,4.94A15.17,15.17,0,0,1,55,29M40.37,31.45a3.35,3.35,0,0,1,6,.88c-.29,0-.57.05-.86.05a15.09,15.09,0,0,1-5.17-.93m5.17,2.88c.29,0,.56,0,.84,0a3.35,3.35,0,0,1-6.55-1,16.93,16.93,0,0,0,5.71,1M47,43.24a1,1,0,0,0-.63.91V62.52l-3.13,3L40.53,63l2.66-2.26a.93.93,0,0,0,.35-.71,1,1,0,0,0-.3-.73l-2-1.92,2-1.92a1,1,0,0,0,0-1.4l-2-1.92,2-1.92a1,1,0,0,0,.3-.7,1,1,0,0,0-.3-.7l-3.18-3.1V44.15a1,1,0,0,0-.63-.91,10.6,10.6,0,0,1-6.3-13.45c.07-.19.17-.37.24-.55A17.38,17.38,0,0,0,38,32.53a4.78,4.78,0,0,0-.08.75,5.32,5.32,0,1,0,10.63,0c0-.05,0-.09,0-.15h0v0a5.28,5.28,0,0,0-9.89-2.42,15.31,15.31,0,0,1-4.25-3.28l.17-.28.16-.21a12.17,12.17,0,0,1,.8-.95l.13-.14a10.94,10.94,0,0,1,1-.9l.23-.18A9.17,9.17,0,0,1,38,24l0,0a11.79,11.79,0,0,1,1.35-.63l.09,0a10.44,10.44,0,0,1,3-.66h0c.24,0,.48,0,.73,0A10.65,10.65,0,0,1,47,43.24m-16.59-26A15.24,15.24,0,0,1,32,10.41c3,2.53,4.38,6.11,3.11,9a6.39,6.39,0,0,1-3.68,3.3,15.06,15.06,0,0,1-1.07-5.55m-.82,6.05a12.31,12.31,0,0,1-6.84-.93,12.09,12.09,0,0,1-5.8-5,6.69,6.69,0,0,1-.55-6c1.11-2.56,3.95-4,7.26-4a13.36,13.36,0,0,1,6.79,2,17.07,17.07,0,0,0-2,7.93,16.89,16.89,0,0,0,1.13,6.05m1.95,5.37a19.4,19.4,0,0,1-7.5-.5,1,1,0,0,0-1.14.56L12.24,53.08h0l-1.76,4L7.07,65A2.6,2.6,0,0,1,5.6,66.37a2.68,2.68,0,0,1-3.43-3.55L18,26.55a1,1,0,0,0-.37-1.21C11,21.12,7.87,14.09,10.25,8.63c1.86-4.29,6.61-6.69,12.11-6.69a21.16,21.16,0,0,1,8.42,1.81c7.92,3.44,12.57,10.82,10.87,17a12.05,12.05,0,0,0-1.59.3l-.17,0A12.22,12.22,0,0,0,37,22.33l-.3.18c-.33.2-.65.42-1,.65l-.35.26a11.11,11.11,0,0,0-1.09,1l-.12.13c-.31.32-.6.66-.88,1l-.21.28a12.8,12.8,0,0,1-.79-1.27,8.25,8.25,0,0,0,4.63-4.32c1.76-4-.31-9-4.67-12.07l-.06-.06,0,0a15.54,15.54,0,0,0-2.6-1.45c-6.16-2.67-12.87-.93-15,3.89a8.57,8.57,0,0,0,.64,7.72,14.08,14.08,0,0,0,6.73,5.88,14.86,14.86,0,0,0,5.9,1.27,12.41,12.41,0,0,0,2.53-.28A17,17,0,0,0,32,27.59c-.17.33-.33.67-.47,1h0M17.05,56.24l-1.16,2.65-3.41-1.48,1.16-2.66Zm-6.64,5.94,3.41,1.49-1.16,2.65L9.25,64.84l.49-1.13ZM45.54.07a17.1,17.1,0,0,0-10.6,3.7A23.17,23.17,0,0,0,31.56,2C22-2.18,11.67.46,8.46,7.85,5.79,14,8.89,21.73,15.84,26.52L.39,62.05a4.55,4.55,0,0,0-.07,3.53,4.66,4.66,0,0,0,2.46,2.55,4.66,4.66,0,0,0,3.54.06,4.53,4.53,0,0,0,2-1.61l4.41,1.92a1.09,1.09,0,0,0,.39.08,1,1,0,0,0,.89-.59L16,63.55a1,1,0,0,0-.5-1.28l-4.31-1.88.52-1.19L16,61.07a1,1,0,0,0,.39.08.92.92,0,0,0,.36-.07.93.93,0,0,0,.53-.52l1.94-4.44a1,1,0,0,0,0-.75,1,1,0,0,0-.52-.53L14.41,53l9.9-22.76a21.82,21.82,0,0,0,6.56.43,12.14,12.14,0,0,0-.29,2.64,12.67,12.67,0,0,0,7.53,11.53V46.1a1,1,0,0,0,.29.7l2.76,2.69-2,1.92a1,1,0,0,0-.3.7,1,1,0,0,0,.3.7l2,1.92-2,1.92a1,1,0,0,0-.3.7,1,1,0,0,0,.3.7l1.92,1.87-2.66,2.26a1,1,0,0,0-.34.71.94.94,0,0,0,.29.73l4.11,4a1,1,0,0,0,.68.28,1,1,0,0,0,.68-.28l4.1-4a1,1,0,0,0,.3-.7V44.81a12.52,12.52,0,0,0,7.31-13.76,17.11,17.11,0,0,0-10-31"/></g></svg>