<svg id="Warstwa_1" data-name="Warstwa 1" xmlns="http://www.w3.org/2000/svg" xmlns:xlink="http://www.w3.org/1999/xlink" viewBox="0 0 64.03 33.53"><defs><style>.cls-1{fill:none;}.cls-2{clip-path:url(#clip-path);}.cls-3{fill:#fff;}</style><clipPath id="clip-path"><rect class="cls-1" width="64.03" height="33.53"/></clipPath></defs><title>icon__insights</title><g class="cls-2"><path class="cls-3" d="M32,.66a16.1,16.1,0,0,0-16.1,16.1,15.1,15.1,0,0,0,.1,1.79l.19,0-.19,0A16.1,16.1,0,1,0,32,.66M16.21,18.53a17.19,17.19,0,0,1-.09-1.77,15.82,15.82,0,1,1,.09,1.77"/><path class="cls-3" d="M32,8.66a8.1,8.1,0,1,0,8.1,8.1h-.2a7.92,7.92,0,1,1-2.32-5.58,7.89,7.89,0,0,1,2.32,5.58h.2A8.1,8.1,0,0,0,32,8.66"/><path class="cls-3" d="M32,2A14.77,14.77,0,1,0,46.78,16.76,14.78,14.78,0,0,0,32,2m0,31.53A16.77,16.77,0,1,1,48.78,16.76,16.78,16.78,0,0,1,32,33.53"/><path class="cls-3" d="M32,10.33a6.43,6.43,0,1,0,6.42,6.43A6.44,6.44,0,0,0,32,10.33m0,14.86a8.43,8.43,0,1,1,8.42-8.43A8.44,8.44,0,0,1,32,25.19"/><path class="cls-3" d="M2.25,16.76A37.54,37.54,0,0,0,32,31.53,37.54,37.54,0,0,0,61.78,16.76a37.39,37.39,0,0,0-59.53,0M32,33.53A39.57,39.57,0,0,1,.19,17.35a1,1,0,0,1,0-1.18,39.4,39.4,0,0,1,63.65,0,1,1,0,0,1,0,1.18A39.55,39.55,0,0,1,32,33.53"/></g></svg>