<svg id="Warstwa_1" data-name="Warstwa 1" xmlns="http://www.w3.org/2000/svg" xmlns:xlink="http://www.w3.org/1999/xlink" viewBox="0 0 58.06 63.32"><defs><style>.cls-1,.cls-3{fill:none;}.cls-2{fill:#fff;}.cls-3{stroke:#fff;stroke-miterlimit:10;stroke-width:0.6px;}.cls-4{clip-path:url(#clip-path);}</style><clipPath id="clip-path"><rect class="cls-1" width="58.06" height="63.32"/></clipPath></defs><title>icon__software</title><path class="cls-2" d="M33.9,36.81H50.83V25.15H33.9ZM52.51,38.5H32.21v-15h20.3Z"/><path class="cls-3" d="M33.9,36.81H50.83V25.15H33.9ZM52.51,38.5H32.21v-15h20.3Z"/><rect class="cls-2" x="13.79" y="23.81" width="16.18" height="1.69"/><rect class="cls-3" x="13.79" y="23.81" width="16.18" height="1.69"/><rect class="cls-2" x="13.79" y="31.96" width="16.18" height="1.69"/><rect class="cls-3" x="13.79" y="31.96" width="16.18" height="1.69"/><rect class="cls-2" x="13.79" y="37.65" width="16.18" height="1.69"/><rect class="cls-3" x="13.79" y="37.65" width="16.18" height="1.69"/><rect class="cls-2" x="13.79" y="43.33" width="16.18" height="1.69"/><rect class="cls-3" x="13.79" y="43.33" width="16.18" height="1.69"/><rect class="cls-2" x="13.79" y="49.02" width="16.18" height="1.69"/><rect class="cls-3" x="13.79" y="49.02" width="16.18" height="1.69"/><rect class="cls-2" x="34.88" y="43.33" width="15.79" height="1.69"/><rect class="cls-3" x="34.88" y="43.33" width="15.79" height="1.69"/><rect class="cls-2" x="34.88" y="49.02" width="15.79" height="1.69"/><rect class="cls-3" x="34.88" y="49.02" width="15.79" height="1.69"/><g class="cls-4"><path class="cls-2" d="M0,61.33H2.94a5.72,5.72,0,0,0,5.71-5.72V26.79h1.68V55.61A7.41,7.41,0,0,1,2.94,63H0"/><path class="cls-3" d="M0,61.33H2.94a5.72,5.72,0,0,0,5.71-5.72V26.79h1.68V55.61A7.41,7.41,0,0,1,2.94,63H0"/><path class="cls-2" d="M50.38,63H3.27V61.33H50.38a5.72,5.72,0,0,0,5.7-5.72V26.79h1.68V55.61A7.41,7.41,0,0,1,50.38,63"/><path class="cls-3" d="M50.38,63H3.27V61.33H50.38a5.72,5.72,0,0,0,5.7-5.72V26.79h1.68V55.61A7.41,7.41,0,0,1,50.38,63Z"/><path class="cls-2" d="M57.76,53.9H56.08V2.84a.8.8,0,0,0-.8-.8L11.12,2h0a.79.79,0,0,0-.79.79v24H8.65v-24A2.48,2.48,0,0,1,11.12.3h0L55.29.36a2.48,2.48,0,0,1,2.47,2.48Z"/><path class="cls-3" d="M57.76,53.9H56.08V2.84a.8.8,0,0,0-.8-.8L11.12,2h0a.79.79,0,0,0-.79.79v24H8.65v-24A2.48,2.48,0,0,1,11.12.3h0L55.29.36a2.48,2.48,0,0,1,2.47,2.48Z"/></g><path class="cls-2" d="M13.6,14H51.74V10.7H13.6Zm39.82,1.68H11.92V9h41.5Z"/><path class="cls-3" d="M13.6,14H51.74V10.7H13.6Zm39.82,1.68H11.92V9h41.5Z"/></svg>