<svg id="Warstwa_1" data-name="Warstwa 1" xmlns="http://www.w3.org/2000/svg" xmlns:xlink="http://www.w3.org/1999/xlink" viewBox="0 0 50.6 60.72"><defs><style>.cls-1,.cls-4{fill:none;}.cls-2{clip-path:url(#clip-path);}.cls-3{fill:#fff;}.cls-4{stroke:#fff;stroke-miterlimit:10;stroke-width:0.6px;}</style><clipPath id="clip-path"><rect class="cls-1" width="50.6" height="60.72"/></clipPath></defs><title>icon__application</title><g class="cls-2"><path class="cls-3" d="M24.37,43.6h-.18a1.75,1.75,0,0,0-1.27.8,1.59,1.59,0,0,0-.39,1.2c.15,1,1.5,1.9,2.22,2.41.95.66,1.95,1.29,2.92,1.9A37.06,37.06,0,0,1,33.37,54a47.12,47.12,0,0,1,4.26,4.54c2.5-.88,5-1.92,7.4-2.93l1.41-.59,2.35-1c0-.58-.06-1.63-.1-2.46-.07-1.69-.11-2.75-.09-3.11A24.91,24.91,0,0,0,47,37.19a4.17,4.17,0,0,0-.69-1,5.73,5.73,0,0,1-.78-1.09l0-.1c-.21-.42-.57-1.12-.92-1.27-.59-.24-1.87.24-2.76.85l-.79.54-.35-.89c-.18-.46-.36-.92-.56-1.38a8.63,8.63,0,0,0-.85.27l-.2.07a12.36,12.36,0,0,0-2.67,1.26l-.74.47-.73-1.67a12.07,12.07,0,0,0-1.4.39,4,4,0,0,0-1.73,1l-.8.93L28.8,30.37A9.36,9.36,0,0,0,27.53,28a1.88,1.88,0,0,0-2.48-.46A1.93,1.93,0,0,0,24.21,30l7.15,18.61L29,46.4c-1.08-1-3.07-2.8-4.61-2.8M37.12,60.37,36.79,60a45.13,45.13,0,0,0-4.45-4.79,34.58,34.58,0,0,0-5.48-4c-1-.62-2-1.26-3-1.95-1.25-.88-2.61-2-2.85-3.42a3,3,0,0,1,.67-2.35,3.27,3.27,0,0,1,2.35-1.42,5.82,5.82,0,0,1,3.69,1.31L22.8,30.51a3.45,3.45,0,0,1,1.48-4.28A3.36,3.36,0,0,1,28.7,27a10.47,10.47,0,0,1,1.5,2.77l1.29,3.13a6.35,6.35,0,0,1,1.5-.7c2.24-.79,2.83-.59,3.09,0l.22.5a15.45,15.45,0,0,1,2.24-1l.16-.05c.87-.32,2.18-.8,2.61.18.14.32.28.65.41,1a4.36,4.36,0,0,1,3.39-.52,3.88,3.88,0,0,1,1.69,2l.05.1a4.55,4.55,0,0,0,.59.8,5.12,5.12,0,0,1,.92,1.37,26.45,26.45,0,0,1,1.76,12c0,.3,0,1.76.09,2.93.16,3.52.16,3.52-.38,3.75L47,56.48l-1.4.58c-2.13.89-4.32,1.81-6.53,2.62v0l-1.47.5h0Z"/><path class="cls-4" d="M24.37,43.6h-.18a1.75,1.75,0,0,0-1.27.8,1.59,1.59,0,0,0-.39,1.2c.15,1,1.5,1.9,2.22,2.41.95.66,1.95,1.29,2.92,1.9A37.06,37.06,0,0,1,33.37,54a47.12,47.12,0,0,1,4.26,4.54c2.5-.88,5-1.92,7.4-2.93l1.41-.59,2.35-1c0-.58-.06-1.63-.1-2.46-.07-1.69-.11-2.75-.09-3.11A24.91,24.91,0,0,0,47,37.19a4.17,4.17,0,0,0-.69-1,5.73,5.73,0,0,1-.78-1.09l0-.1c-.21-.42-.57-1.12-.92-1.27-.59-.24-1.87.24-2.76.85l-.79.54-.35-.89c-.18-.46-.36-.92-.56-1.38a8.63,8.63,0,0,0-.85.27l-.2.07a12.36,12.36,0,0,0-2.67,1.26l-.74.47-.73-1.67a12.07,12.07,0,0,0-1.4.39,4,4,0,0,0-1.73,1l-.8.93L28.8,30.37A9.36,9.36,0,0,0,27.53,28a1.88,1.88,0,0,0-2.48-.46A1.93,1.93,0,0,0,24.21,30l7.15,18.61L29,46.4C27.9,45.41,25.91,43.6,24.37,43.6ZM37.12,60.37,36.79,60a45.13,45.13,0,0,0-4.45-4.79,34.58,34.58,0,0,0-5.48-4c-1-.62-2-1.26-3-1.95-1.25-.88-2.61-2-2.85-3.42a3,3,0,0,1,.67-2.35,3.27,3.27,0,0,1,2.35-1.42,5.82,5.82,0,0,1,3.69,1.31L22.8,30.51a3.45,3.45,0,0,1,1.48-4.28A3.36,3.36,0,0,1,28.7,27a10.47,10.47,0,0,1,1.5,2.77l1.29,3.13a6.35,6.35,0,0,1,1.5-.7c2.24-.79,2.83-.59,3.09,0l.22.5a15.45,15.45,0,0,1,2.24-1l.16-.05c.87-.32,2.18-.8,2.61.18.14.32.28.65.41,1a4.36,4.36,0,0,1,3.39-.52,3.88,3.88,0,0,1,1.69,2l.05.1a4.55,4.55,0,0,0,.59.8,5.12,5.12,0,0,1,.92,1.37,26.45,26.45,0,0,1,1.76,12c0,.3,0,1.76.09,2.93.16,3.52.16,3.52-.38,3.75L47,56.48l-1.4.58c-2.13.89-4.32,1.81-6.53,2.62v0l-1.47.5h0Z"/><path class="cls-3" d="M21.75,51.41H5.43V5.32H42.5v23.8H41V6.85H7v43h14.8ZM30.23,58H3A2.71,2.71,0,0,1,.3,55.23V3A2.71,2.71,0,0,1,3,.3H44.93A2.71,2.71,0,0,1,47.63,3V29.41H46.11V3a1.18,1.18,0,0,0-1.18-1.19H3A1.18,1.18,0,0,0,1.82,3V55.23A1.18,1.18,0,0,0,3,56.42H30.23Z"/><path class="cls-4" d="M21.75,51.41H5.43V5.32H42.5v23.8H41V6.85H7v43h14.8ZM30.23,58H3A2.71,2.71,0,0,1,.3,55.23V3A2.71,2.71,0,0,1,3,.3H44.93A2.71,2.71,0,0,1,47.63,3V29.41H46.11V3a1.18,1.18,0,0,0-1.18-1.19H3A1.18,1.18,0,0,0,1.82,3V55.23A1.18,1.18,0,0,0,3,56.42H30.23Z"/></g><rect class="cls-3" x="8.49" y="9.65" width="14.63" height="1.53"/><rect class="cls-4" x="8.49" y="9.65" width="14.63" height="1.53"/><rect class="cls-3" x="8.49" y="14.81" width="14.63" height="1.53"/><rect class="cls-4" x="8.49" y="14.81" width="14.63" height="1.53"/><rect class="cls-3" x="8.49" y="19.96" width="14.63" height="1.53"/><rect class="cls-4" x="8.49" y="19.96" width="14.63" height="1.53"/><rect class="cls-3" x="8.49" y="25.11" width="14.63" height="1.53"/><rect class="cls-4" x="8.49" y="25.11" width="14.63" height="1.53"/></svg>