<svg id="Layer_1" data-name="Layer 1" xmlns="http://www.w3.org/2000/svg" viewBox="0 0 452.98 119.45"><defs><style>.cls-1{fill:#fff;}</style></defs><title>logo__embark--white</title><path class="cls-1" d="M453,51.87V58a3,3,0,0,1-1.93,2.8L400.49,80.17a3,3,0,0,1-3.87-1.73,3.08,3.08,0,0,1-.2-1.08V72.82a3,3,0,0,1,2-2.81l40.27-15.07L398.42,40a3,3,0,0,1-2-2.81V32.54a3,3,0,0,1,3-3,3,3,0,0,1,1.08.2l50.56,19.33A3,3,0,0,1,453,51.87Z"/><path class="cls-1" d="M262.54,105.62a6.94,6.94,0,0,1-6.55,7.31h-.45a5.64,5.64,0,0,1-4.86-2.4v2.1h-2.9V91h2.94v9.66a5.51,5.51,0,0,1,4.86-2.37,6.88,6.88,0,0,1,7,6.79C262.55,105.28,262.55,105.45,262.54,105.62Zm-3,0a4.29,4.29,0,0,0-4.11-4.47h-.24a4.52,4.52,0,0,0,0,9,4.38,4.38,0,0,0,4.38-4.38v-.18Z"/><path class="cls-1" d="M278.28,98.63l-8.7,20.82h-3.12l3-7.41-5.58-13.41h3.18l4,9.75,4-9.75Z"/><path class="cls-1" d="M303.28,98.51c0,3.3-1.86,6.48-6.3,6.48h-5.19v7.65H288.7V92H297C301.45,92,303.28,95.24,303.28,98.51Zm-3.09,0c0-1.83-1-3.72-3.27-3.72h-5.13v7.38h5c2.49,0,3.43-1.83,3.43-3.66Z"/><path class="cls-1" d="M319.78,98.63v14h-2.94v-2.1a5.57,5.57,0,0,1-4.83,2.4,6.93,6.93,0,0,1-7-6.85c0-.16,0-.31,0-.47,0-4.47,3.15-7.29,6.93-7.29a5.51,5.51,0,0,1,4.86,2.37V98.62Zm-3,7a4.43,4.43,0,0,0-4.39-4.47h-.08a4.31,4.31,0,0,0-4.35,4.27v.2a4.41,4.41,0,1,0,8.82,0Z"/><path class="cls-1" d="M336.79,98.63l-8.7,20.82H325l3-7.41-5.58-13.41h3.18l4,9.75,4-9.75Z"/><path class="cls-1" d="M339.28,91h2.94v21.6h-2.94Z"/><path class="cls-1" d="M346.09,93.53a2,2,0,1,1,2.11,1.89h-.11A2,2,0,0,1,346.09,93.53Zm.54,5.1h2.94v14h-2.94Z"/><path class="cls-1" d="M367.09,104.63v8h-2.94v-7.81c0-2.28-1.38-3.6-3.18-3.6a3.76,3.76,0,0,0-4,3.48,3.38,3.38,0,0,0,0,.45v7.47H354v-14h2.94v2.2c.81-1.71,3.06-2.46,4.56-2.46C365,98.33,367.11,100.64,367.09,104.63Z"/><path class="cls-1" d="M380.35,112.64,374.28,106v6.66h-3V91h3V103.4l4.59-4.77h4l-5.9,6.06,7.29,8Z"/><path class="cls-1" d="M372.14,80.16l-22.4-24.34V80.68h-11V0h11V46.15l16.69-17.33a1.47,1.47,0,0,1,1.08-.46h10.7a1.5,1.5,0,0,1,1.51,1.49,1.49,1.49,0,0,1-.43,1.06L360.7,50a1.49,1.49,0,0,0,0,2.06l24,26.12a1.5,1.5,0,0,1-.1,2.12,1.52,1.52,0,0,1-1,.39H373.28A1.51,1.51,0,0,1,372.14,80.16Z"/><path class="cls-1" d="M47.28,70.11V80.64H0V3.48H46.28V14H11.43V37.41H41.78V48.05H11.43V70.11Z"/><path class="cls-1" d="M143.14,50.74v29.9H132.05V51.52c0-8.62-4.48-13.66-11.54-13.66-7.5-.11-12.43,5.26-13.1,13V80.65H96.28V51.41c0-8.62-4.48-13.55-11-13.55C78.44,37.86,71.5,42,71.5,52.64v28h-11V28.34h11v8.29c2.35-5.83,9.18-9.41,16.35-9.41,7.51,0,14,3.81,17,10.53,4.7-8.85,12.88-10.53,18-10.53C136.08,27.22,143.14,35.82,143.14,50.74Z"/><path class="cls-1" d="M213.92,54.43c0,16.58-11.87,27.33-26,27.33-7.06,0-14.67-3-18.14-9V80.6h-11V0h11V36.07c3.47-5.94,10.75-8.85,18.14-8.85C202.16,27.22,213.92,37.75,213.92,54.43Zm-11.09-.11c0-9.85-7.16-16.69-16.23-16.69a16.56,16.56,0,0,0-16.69,16.43v.26c0,10.53,8,17,16.69,17,9.07,0,16.23-7.25,16.23-17Z"/><path class="cls-1" d="M278.55,28.34v52.3h-11V72.82c-3.47,5.94-11,9-18,9-14.23,0-26-10.75-26-27.33s11.73-27.27,25.88-27.27c7.39,0,14.67,2.91,18.14,8.85V28.34Zm-11.09,26A16.56,16.56,0,0,0,251,37.65h-.26c-9,0-16.24,6.84-16.24,16.69s7.28,17,16.24,17,16.69-6.52,16.69-17Z"/><path class="cls-1" d="M329.62,29.12l-1.91,10.42A18.73,18.73,0,0,0,320,37.75c-9.52,0-14,10-14,24.08V80.64H294.9V28.34H306V40.1c2.68-9.19,8-12.88,14.67-12.88C324.28,27.22,327.94,28.11,329.62,29.12Z"/></svg>